<mxfile host="app.diagrams.net" modified="2023-12-11T13:51:47.586Z" agent="Mozilla/5.0 (Windows NT 10.0; Win64; x64) AppleWebKit/537.36 (KHTML, like Gecko) Chrome/120.0.0.0 Safari/537.36" version="22.1.7" etag="kd03OzzJldx4muEO3ZKB" type="github">
  <diagram name="第 1 页" id="jtX2Z8Us5BW43Ej_mVOt">
    <mxGraphModel>
      <root>
        <mxCell id="0" />
        <mxCell id="1" parent="0" />
      </root>
    </mxGraphModel>
  </diagram>
</mxfile>
